<?xml version="1.0" standalone="no"?>
<!DOCTYPE svg PUBLIC "-//W3C//DTD SVG 20010904//EN"
 "http://www.w3.org/TR/2001/REC-SVG-20010904/DTD/svg10.dtd">
<svg version="1.0" xmlns="http://www.w3.org/2000/svg"
 width="421.000000pt" height="421.000000pt" viewBox="0 0 421.000000 421.000000"
 preserveAspectRatio="xMidYMid meet">
<metadata>
Created by potrace 1.11, written by Peter Selinger 2001-2013
</metadata>
<g transform="translate(0.000000,421.000000) scale(0.100000,-0.100000)"
fill="#000000" stroke="none">
<path d="M190 2090 l0 -938 503 1 c491 0 504 1 575 23 395 122 527 602 246
900 -30 31 -54 58 -54 60 0 2 13 22 29 46 94 140 108 352 35 514 -52 114 -158
223 -269 275 -117 55 -133 57 -617 57 l-448 0 0 -938z m802 509 c112 -57 116
-217 6 -279 -37 -21 -55 -23 -167 -25 -69 -1 -131 0 -136 2 -8 3 -13 276 -6
314 0 4 61 7 134 7 108 -1 139 -4 169 -19z m55 -724 c38 -7 88 -46 109 -86 34
-66 10 -156 -53 -199 -36 -24 -40 -25 -227 -25 l-191 0 0 155 0 155 75 5 c86
6 240 3 287 -5z"/>
<path d="M2029 2926 c0 -130 0 -1701 0 -1743 1 -28 5 -33 25 -33 l23 0 1 893
c0 490 1 900 1 910 1 13 154 -134 445 -425 244 -243 455 -453 468 -466 l25
-23 454 453 c250 249 461 458 469 465 13 10 15 -90 15 -895 l0 -907 25 0 25 0
0 932 c0 618 -3 934 -10 937 -46 17 -65 0 -525 -459 l-455 -455 -457 456
c-419 420 -459 457 -492 459 l-36 3 -1 -102z"/>
</g>
</svg>
