<?xml version="1.0" encoding="UTF-8"?>
<svg width="398px" height="394px" viewBox="0 0 398 394" version="1.1" xmlns="http://www.w3.org/2000/svg" xmlns:xlink="http://www.w3.org/1999/xlink">
    <!-- Generator: Sketch 52.6 (67491) - http://www.bohemiancoding.com/sketch -->
    <title>Slice</title>
    <desc>Created with Sketch.</desc>
    <g id="Page-1" stroke="none" stroke-width="1" fill="none" fill-rule="evenodd">
        <g id="splot" transform="translate(90.000000, 41.000000)" fill="#000000">
            <g id="Group" transform="translate(99.450000, 144.500000) scale(-1, 1) rotate(-180.000000) translate(-99.450000, -144.500000) translate(0.300000, 0.000000)">
                <path d="M46.7,288 C46.7,287.5 47.4,287 48.3,287 C49.1,287 49.5,287.5 49.2,288 C48.9,288.6 48.2,289 47.6,289 C47.1,289 46.7,288.6 46.7,288 Z" id="Path"></path>
                <path d="M10.2,262 C9.9,261.4 10.3,261.3 11.1,261.6 C12.9,262.3 13.2,263 11.8,263 C11.2,263 10.5,262.6 10.2,262 Z" id="Path"></path>
                <path d="M81.8,242.4 C81.8,241.3 82.1,241 82.4,241.8 C82.7,242.5 82.6,243.4 82.3,243.7 C82,244.1 81.7,243.5 81.8,242.4 Z" id="Path"></path>
                <path d="M46.5,212 C46.2,210 46.5,209 47.3,209 C49.3,209 50.8,212.5 49.5,213.8 C47.6,215.7 47,215.2 46.5,212 Z" id="Path"></path>
                <path d="M195.2,201.9 C194.2,200.4 195.3,199.6 197.2,200.4 C198.1,200.7 198.5,201.4 198.2,202 C197.4,203.3 196,203.3 195.2,201.9 Z" id="Path"></path>
                <path d="M134.2,151.4 C132,150.1 129.8,148.9 129.2,148.7 C128.7,148.5 129.5,147.1 131.1,145.7 C134,143 134,143 131.6,143 C129.5,143 129.4,142.8 130.8,141.5 C132.9,139.4 141,140.8 141.5,143.4 C141.9,145.5 139.7,154 138.8,153.9 C138.5,153.9 136.4,152.7 134.2,151.4 Z" id="Path"></path>
                <path d="M102.9,126.2 C101.4,125.2 102.2,122.4 104.2,121.6 C104.9,121.4 106.3,121.7 107.3,122.5 C108.8,123.6 108.9,124 107.8,125.4 C106.3,127.2 104.9,127.4 102.9,126.2 Z" id="Path"></path>
                <path d="M94.7,108.5 C93.7,107.3 93.7,107 95.1,107 C96,107 96.7,107.7 96.7,108.5 C96.7,109.3 96.5,110 96.3,110 C96.1,110 95.4,109.3 94.7,108.5 Z" id="Path"></path>
                <path d="M104.7,95.6 C104.2,94.3 103.2,93 102.5,92.7 C101.8,92.5 101.4,92 101.7,91.7 C102.7,90.7 108.7,94.9 108.7,96.5 C108.7,98.9 105.7,98.2 104.7,95.6 Z" id="Path"></path>
                <path d="M131.3,91.4 C130.5,89.3 130.5,89 131.6,89 C132.1,89 132.7,89.9 133,91 C133.6,93.4 132.2,93.7 131.3,91.4 Z" id="Path"></path>
                <path d="M56.2,91 C56.5,90.5 57,90 57.3,90 C57.5,90 57.7,90.5 57.7,91 C57.7,91.6 57.2,92 56.6,92 C56.1,92 55.9,91.6 56.2,91 Z" id="Path"></path>
                <path d="M191.7,91.2 C191.7,89.7 192.8,89.1 194.4,89.7 C195.6,90.2 195.6,90.4 194.5,91.1 C192.8,92.2 191.7,92.2 191.7,91.2 Z" id="Path"></path>
                <path d="M46.7,89.6 C46.7,89.4 47.4,87.9 48.2,86.4 C49.1,84.6 49.7,84.2 49.7,85.1 C49.7,86 50.4,87 51.2,87.4 C53.8,88.4 52.8,90 49.7,90 C48.1,90 46.7,89.8 46.7,89.6 Z" id="Path"></path>
                <path d="M111.4,79.3 C110.1,78.1 110.7,77 112.7,77 C113.8,77 114.7,76.4 114.7,75.8 C114.7,74.9 115,75 115.7,76 C117.2,78.4 113.4,81.4 111.4,79.3 Z" id="Path"></path>
                <path d="M60.1,53.2 C59.5,52.8 58.8,51.5 58.5,50.3 C58,48.3 58.3,48.1 61.3,48.4 C65.6,48.8 66.1,49.3 64.7,51.9 C63.6,54.1 62,54.5 60.1,53.2 Z" id="Path"></path>
                <path d="M62.7,40.9 C62.7,40.4 63.2,40.2 63.7,40.5 C64.3,40.8 64.7,41.3 64.7,41.6 C64.7,41.8 64.3,42 63.7,42 C63.2,42 62.7,41.5 62.7,40.9 Z" id="Path"></path>
                <path d="M27.7,28.1 C27.7,27.6 28.4,26.7 29.2,26 C30.5,25 30.7,25.1 30.7,26.9 C30.7,28.1 30.1,29 29.2,29 C28.4,29 27.7,28.6 27.7,28.1 Z" id="Path"></path>
                <path d="M0.2,16 C0.5,15.5 1,15 1.3,15 C1.5,15 1.7,15.5 1.7,16 C1.7,16.6 1.2,17 0.6,17 C0.1,17 -0.1,16.6 0.2,16 Z" id="Path"></path>
                <path d="M43.7,1 C43.7,0.5 44.2,0 44.7,0 C45.3,0 45.7,0.5 45.7,1 C45.7,1.6 45.3,2 44.7,2 C44.2,2 43.7,1.6 43.7,1 Z" id="Path"></path>
            </g>
        </g>
    </g>
</svg>